####
#
# OBJ File Generated by Meshlab
#
####
# Object tricylinder_,manifold.obj
#
# Vertices: 206
# Faces: 408
#
####
vn 0.997016 0.054583 0.054583
v 0.498096 0.043577 0.043577
vn 0.990270 0.098400 -0.098400
v 0.492403 0.086823 -0.086823
vn 0.990270 0.098400 0.098400
v 0.492403 0.086823 0.086823
vn 0.997016 0.054583 -0.054583
v 0.498096 0.043577 -0.043577
vn 1.000000 0.000000 0.000000
v 0.500000 0.000000 0.000000
vn 0.979475 0.142529 -0.142529
v 0.482963 0.129409 -0.129409
vn 0.979475 0.142529 0.142529
v 0.482963 0.129409 0.129409
vn 0.142529 -0.979475 -0.142529
v 0.129409 -0.482963 -0.129409
vn 0.187088 -0.964363 0.187088
v 0.171010 -0.469846 0.171010
vn 0.142529 -0.979475 0.142529
v 0.129409 -0.482963 0.129409
vn 0.187088 -0.964363 -0.187088
v 0.171010 -0.469846 -0.171010
vn 0.187088 0.964363 0.187088
v 0.171010 0.469846 0.171010
vn 0.142529 0.979475 -0.142529
v 0.129409 0.482963 -0.129409
vn 0.142529 0.979475 0.142529
v 0.129409 0.482963 0.129409
vn 0.187088 0.964363 -0.187088
v 0.171010 0.469846 -0.171010
vn -0.277848 -0.919566 0.277848
v -0.250000 -0.433012 0.250000
vn -0.232177 -0.944557 -0.232177
v -0.211308 -0.453154 -0.211308
vn -0.232177 -0.944557 0.232177
v -0.211308 -0.453154 0.211308
vn -0.277848 -0.919566 -0.277848
v -0.250000 -0.433012 -0.250000
vn 0.232177 -0.944557 -0.232177
v 0.211308 -0.453154 -0.211308
vn 0.277848 -0.919566 0.277848
v 0.250000 -0.433012 0.250000
vn 0.232177 -0.944557 0.232177
v 0.211308 -0.453154 0.211308
vn 0.277848 -0.919566 -0.277848
v 0.250000 -0.433012 -0.250000
vn -0.888781 0.324090 -0.324090
v -0.409575 0.286788 -0.286788
vn -0.851502 0.370772 0.370772
v -0.383021 0.321393 0.321393
vn -0.851502 0.370772 -0.370773
v -0.383021 0.321393 -0.321393
vn -0.888781 0.324090 0.324090
v -0.409575 0.286788 0.286788
vn -0.919566 0.277848 -0.277848
v -0.433012 0.250000 -0.250000
vn -0.919566 0.277848 0.277848
v -0.433012 0.250000 0.250000
vn 0.098400 -0.990270 -0.098400
v 0.086823 -0.492403 -0.086823
vn 0.098400 -0.990270 0.098400
v 0.086823 -0.492403 0.086823
vn 0.098400 0.990270 -0.098400
v 0.086823 0.492403 -0.086823
vn 0.098400 0.990270 0.098400
v 0.086823 0.492403 0.086823
vn -0.990270 -0.098400 -0.098400
v -0.492403 -0.086823 -0.086823
vn -0.997016 -0.054583 0.054583
v -0.498096 -0.043577 0.043577
vn -0.997016 -0.054583 -0.054583
v -0.498096 -0.043577 -0.043577
vn -0.990270 -0.098400 0.098400
v -0.492403 -0.086823 0.086823
vn -0.142529 0.979475 -0.142529
v -0.129409 0.482963 -0.129409
vn -0.187088 0.964363 0.187088
v -0.171010 0.469846 0.171010
vn -0.142529 0.979475 0.142529
v -0.129409 0.482963 0.129409
vn -0.187088 0.964363 -0.187088
v -0.171010 0.469846 -0.171010
vn -0.944557 -0.232177 -0.232177
v -0.453154 -0.211308 -0.211308
vn -0.964363 -0.187088 0.187088
v -0.469846 -0.171010 0.171010
vn -0.964363 -0.187088 -0.187088
v -0.469846 -0.171010 -0.171010
vn -0.944557 -0.232177 0.232177
v -0.453154 -0.211308 0.211308
vn 0.577350 -0.577350 0.577350
v 0.353553 -0.353553 0.353553
vn 0.851502 -0.370772 -0.370772
v 0.383021 -0.321393 -0.321393
vn 0.851502 -0.370772 0.370772
v 0.383021 -0.321393 0.321393
vn 0.577350 -0.577350 -0.577350
v 0.353553 -0.353553 -0.353553
vn 0.324090 -0.888781 0.324090
v 0.286788 -0.409575 0.286788
vn 0.324090 -0.888781 -0.324090
v 0.286788 -0.409575 -0.286788
vn 0.054583 -0.997016 -0.054583
v 0.043577 -0.498096 -0.043577
vn 0.054583 -0.997016 0.054583
v 0.043577 -0.498096 0.043577
vn 0.370772 0.851502 0.370772
v 0.321393 0.383021 0.321393
vn 0.324090 0.888781 -0.324090
v 0.286788 0.409575 -0.286788
vn 0.324090 0.888781 0.324090
v 0.286788 0.409575 0.286788
vn 0.370772 0.851502 -0.370773
v 0.321393 0.383021 -0.321393
vn 0.964363 -0.187088 0.187088
v 0.469846 -0.171010 0.171010
vn 0.979475 -0.142529 -0.142529
v 0.482963 -0.129409 -0.129409
vn 0.979475 -0.142529 0.142529
v 0.482963 -0.129409 0.129409
vn 0.964363 -0.187088 -0.187088
v 0.469846 -0.171010 -0.171010
vn -0.277848 0.919566 -0.277848
v -0.250000 0.433012 -0.250000
vn -0.324090 0.888781 0.324090
v -0.286788 0.409575 0.286788
vn -0.277848 0.919566 0.277848
v -0.250000 0.433012 0.250000
vn -0.324090 0.888781 -0.324090
v -0.286788 0.409575 -0.286788
vn -0.964363 0.187088 -0.187088
v -0.469846 0.171010 -0.171010
vn -0.944557 0.232177 0.232177
v -0.453154 0.211308 0.211308
vn -0.944557 0.232177 -0.232177
v -0.453154 0.211308 -0.211308
vn -0.964363 0.187088 0.187088
v -0.469846 0.171010 0.171010
vn -0.324090 -0.888781 0.324090
v -0.286788 -0.409575 0.286788
vn -0.324090 -0.888781 -0.324090
v -0.286788 -0.409575 -0.286788
vn -0.370772 0.851502 0.370772
v -0.321393 0.383021 0.321393
vn -0.370772 0.851502 -0.370772
v -0.321393 0.383021 -0.321393
vn -0.851502 -0.370772 -0.370772
v -0.383021 -0.321393 -0.321393
vn -0.888781 -0.324090 0.324090
v -0.409575 -0.286788 0.286788
vn -0.888781 -0.324090 -0.324090
v -0.409575 -0.286788 -0.286788
vn -0.851502 -0.370772 0.370772
v -0.383021 -0.321393 0.321393
vn 0.277848 0.919566 -0.277848
v 0.250000 0.433012 -0.250000
vn 0.277848 0.919566 0.277848
v 0.250000 0.433012 0.250000
vn 0.000000 -1.000000 0.000000
v 0.000000 -0.500000 0.000000
vn -0.990270 0.098400 -0.098400
v -0.492403 0.086823 -0.086823
vn -0.979475 0.142529 0.142529
v -0.482963 0.129409 0.129409
vn -0.979475 0.142529 -0.142529
v -0.482963 0.129409 -0.129409
vn -0.990270 0.098400 0.098400
v -0.492403 0.086823 0.086823
vn -0.098400 0.990270 -0.098400
v -0.086823 0.492403 -0.086823
vn -0.098400 0.990270 0.098400
v -0.086823 0.492403 0.086823
vn 0.000000 1.000000 0.000000
v 0.000000 0.500000 0.000000
vn -0.054583 0.997016 -0.054583
v -0.043577 0.498096 -0.043577
vn -0.054583 0.997016 0.054583
v -0.043577 0.498096 0.043577
vn 0.577350 0.577350 0.577350
v 0.353553 0.353553 0.353553
vn 0.577350 0.577350 -0.577350
v 0.353553 0.353553 -0.353553
vn 0.232177 0.944557 0.232177
v 0.211308 0.453154 0.211308
vn 0.232177 0.944557 -0.232177
v 0.211308 0.453154 -0.211308
vn -0.577350 0.577350 0.577350
v -0.353553 0.353553 0.353553
vn -0.577350 0.577350 -0.577350
v -0.353553 0.353553 -0.353553
vn 0.888781 -0.324090 0.324090
v 0.409575 -0.286788 0.286788
vn 0.919566 -0.277848 -0.277848
v 0.433012 -0.250000 -0.250000
vn 0.919566 -0.277848 0.277848
v 0.433012 -0.250000 0.250000
vn 0.888781 -0.324090 -0.324090
v 0.409575 -0.286788 -0.286788
vn 0.990270 -0.098400 0.098400
v 0.492403 -0.086823 0.086823
vn 0.997016 -0.054583 -0.054583
v 0.498096 -0.043577 -0.043577
vn 0.997016 -0.054583 0.054583
v 0.498096 -0.043577 0.043577
vn 0.990270 -0.098400 -0.098400
v 0.492403 -0.086823 -0.086823
vn -0.232177 0.944557 -0.232177
v -0.211308 0.453154 -0.211308
vn -0.232177 0.944557 0.232177
v -0.211308 0.453154 0.211308
vn -0.997016 0.054583 -0.054583
v -0.498096 0.043577 -0.043577
vn -0.997016 0.054583 0.054583
v -0.498096 0.043577 0.043577
vn 0.964363 0.187088 -0.187088
v 0.469846 0.171010 -0.171010
vn 0.964363 0.187088 0.187088
v 0.469846 0.171010 0.171010
vn 0.944557 -0.232177 0.232177
v 0.453154 -0.211308 0.211308
vn 0.944557 -0.232177 -0.232177
v 0.453154 -0.211308 -0.211308
vn 0.919566 0.277848 0.277848
v 0.433012 0.250000 0.250000
vn 0.888781 0.324090 -0.324090
v 0.409575 0.286788 -0.286788
vn 0.888781 0.324090 0.324090
v 0.409575 0.286788 0.286788
vn 0.919566 0.277848 -0.277848
v 0.433012 0.250000 -0.250000
vn -0.979475 -0.142529 0.142529
v -0.482963 -0.129409 0.129409
vn -0.979475 -0.142529 -0.142529
v -0.482963 -0.129409 -0.129409
vn 0.944557 0.232177 -0.232177
v 0.453154 0.211308 -0.211308
vn 0.944557 0.232177 0.232177
v 0.453154 0.211308 0.211308
vn -0.370772 -0.851502 0.370772
v -0.321393 -0.383021 0.321393
vn -0.370772 -0.851502 -0.370773
v -0.321393 -0.383021 -0.321393
vn -0.919566 -0.277848 -0.277848
v -0.433012 -0.250000 -0.250000
vn -0.919566 -0.277848 0.277848
v -0.433012 -0.250000 0.250000
vn 0.054583 0.997016 -0.054583
v 0.043577 0.498096 -0.043577
vn 0.054583 0.997016 0.054583
v 0.043577 0.498096 0.043577
vn 0.851502 0.370772 0.370773
v 0.383021 0.321393 0.321393
vn 0.851502 0.370772 -0.370772
v 0.383021 0.321393 -0.321393
vn -0.098400 -0.990270 0.098400
v -0.086823 -0.492403 0.086823
vn -0.054583 -0.997016 -0.054583
v -0.043577 -0.498096 -0.043577
vn -0.054583 -0.997016 0.054583
v -0.043577 -0.498096 0.043577
vn -0.098400 -0.990270 -0.098400
v -0.086823 -0.492403 -0.086823
vn -0.577350 -0.577350 -0.577350
v -0.353553 -0.353553 -0.353553
vn -0.577350 -0.577350 0.577350
v -0.353553 -0.353553 0.353553
vn -1.000000 0.000000 0.000000
v -0.500000 0.000000 0.000000
vn -0.187088 -0.964363 -0.187088
v -0.171010 -0.469846 -0.171010
vn -0.187088 -0.964363 0.187088
v -0.171010 -0.469846 0.171010
vn -0.142529 -0.979475 -0.142529
v -0.129409 -0.482963 -0.129409
vn -0.142529 -0.979475 0.142529
v -0.129409 -0.482963 0.129409
vn 0.370772 -0.851502 -0.370772
v 0.321393 -0.383021 -0.321393
vn 0.370772 -0.851502 0.370772
v 0.321393 -0.383021 0.321393
vn -0.098400 0.098400 -0.990270
v -0.086823 0.086823 -0.492403
vn 0.142529 0.142529 -0.979475
v 0.129409 0.129409 -0.482963
vn 0.098400 0.098400 -0.990270
v 0.086823 0.086823 -0.492403
vn -0.142529 0.142529 -0.979475
v -0.129409 0.129409 -0.482963
vn 0.000000 0.000000 -1.000000
v 0.000000 0.000000 -0.500000
vn -0.054583 0.054583 -0.997016
v -0.043577 0.043577 -0.498096
vn 0.054583 0.054583 -0.997016
v 0.043577 0.043577 -0.498096
vn 0.370772 0.370772 0.851502
v 0.321393 0.321393 0.383021
vn -0.324090 0.324090 0.888781
v -0.286788 0.286788 0.409575
vn 0.324090 0.324090 0.888781
v 0.286788 0.286788 0.409575
vn -0.370772 0.370772 0.851502
v -0.321393 0.321393 0.383021
vn -0.277848 0.277848 0.919566
v -0.250000 0.250000 0.433012
vn 0.277848 0.277848 0.919566
v 0.250000 0.250000 0.433012
vn -0.277848 -0.277848 0.919566
v -0.250000 -0.250000 0.433012
vn 0.324090 -0.324090 0.888781
v 0.286788 -0.286788 0.409575
vn 0.277848 -0.277848 0.919566
v 0.250000 -0.250000 0.433012
vn -0.324090 -0.324090 0.888781
v -0.286788 -0.286788 0.409575
vn -0.370772 -0.370772 -0.851502
v -0.321393 -0.321393 -0.383021
vn 0.370772 -0.370772 -0.851502
v 0.321393 -0.321393 -0.383021
vn 0.054583 0.054583 0.997016
v 0.043577 0.043577 0.498096
vn -0.054583 0.054583 0.997016
v -0.043577 0.043577 0.498096
vn 0.000000 0.000000 1.000000
v 0.000000 0.000000 0.500000
vn -0.054583 -0.054583 0.997016
v -0.043577 -0.043577 0.498096
vn 0.098400 -0.098400 0.990270
v 0.086823 -0.086823 0.492403
vn 0.054583 -0.054583 0.997016
v 0.043577 -0.043577 0.498096
vn -0.098400 -0.098400 0.990270
v -0.086823 -0.086823 0.492403
vn 0.187088 -0.187088 -0.964363
v 0.171010 -0.171010 -0.469846
vn -0.142529 -0.142529 -0.979475
v -0.129409 -0.129409 -0.482963
vn 0.142529 -0.142529 -0.979475
v 0.129409 -0.129409 -0.482963
vn -0.187088 -0.187088 -0.964363
v -0.171010 -0.171010 -0.469846
vn 0.232177 0.232177 0.944557
v 0.211308 0.211308 0.453154
vn -0.187088 0.187088 0.964363
v -0.171010 0.171010 0.469846
vn 0.187088 0.187088 0.964363
v 0.171010 0.171010 0.469846
vn -0.232177 0.232177 0.944557
v -0.211308 0.211308 0.453154
vn -0.277848 0.277848 -0.919566
v -0.250000 0.250000 -0.433012
vn 0.324090 0.324090 -0.888781
v 0.286788 0.286788 -0.409575
vn 0.277848 0.277848 -0.919566
v 0.250000 0.250000 -0.433012
vn -0.324090 0.324090 -0.888781
v -0.286788 0.286788 -0.409575
vn 0.370772 -0.370772 0.851502
v 0.321393 -0.321393 0.383021
vn -0.370772 -0.370772 0.851502
v -0.321393 -0.321393 0.383021
vn -0.187088 -0.187088 0.964363
v -0.171010 -0.171010 0.469846
vn 0.232177 -0.232177 0.944557
v 0.211308 -0.211308 0.453154
vn 0.187088 -0.187088 0.964363
v 0.171010 -0.171010 0.469846
vn -0.232177 -0.232177 0.944557
v -0.211308 -0.211308 0.453154
vn 0.142529 0.142529 0.979475
v 0.129409 0.129409 0.482963
vn -0.098400 0.098400 0.990270
v -0.086823 0.086823 0.492403
vn 0.098400 0.098400 0.990270
v 0.086823 0.086823 0.492403
vn -0.142529 0.142529 0.979475
v -0.129409 0.129409 0.482963
vn 0.277848 -0.277848 -0.919566
v 0.250000 -0.250000 -0.433012
vn -0.232177 -0.232177 -0.944557
v -0.211308 -0.211308 -0.453154
vn 0.232177 -0.232177 -0.944557
v 0.211308 -0.211308 -0.453154
vn -0.277848 -0.277848 -0.919566
v -0.250000 -0.250000 -0.433012
vn 0.324090 -0.324090 -0.888781
v 0.286788 -0.286788 -0.409575
vn -0.324090 -0.324090 -0.888781
v -0.286788 -0.286788 -0.409575
vn 0.098400 -0.098400 -0.990270
v 0.086823 -0.086823 -0.492403
vn -0.054583 -0.054583 -0.997016
v -0.043577 -0.043577 -0.498096
vn 0.054583 -0.054583 -0.997016
v 0.043577 -0.043577 -0.498096
vn -0.098400 -0.098400 -0.990270
v -0.086823 -0.086823 -0.492403
vn 0.187088 0.187088 -0.964363
v 0.171010 0.171010 -0.469846
vn -0.187088 0.187088 -0.964363
v -0.171010 0.171010 -0.469846
vn 0.232177 0.232177 -0.944557
v 0.211308 0.211308 -0.453154
vn -0.232177 0.232177 -0.944557
v -0.211308 0.211308 -0.453154
vn -0.142529 -0.142529 0.979475
v -0.129409 -0.129409 0.482963
vn 0.142529 -0.142529 0.979475
v 0.129409 -0.129409 0.482963
vn 0.370772 0.370772 -0.851502
v 0.321393 0.321393 -0.383021
vn -0.370772 0.370772 -0.851502
v -0.321393 0.321393 -0.383021
# 206 vertices, 0 vertices normals

f 1//1 2//2 3//3
f 2//2 1//1 4//4
f 5//5 4//4 1//1
f 3//3 6//6 7//7
f 6//6 3//3 2//2
f 8//8 9//9 10//10
f 9//9 8//8 11//11
f 12//12 13//13 14//14
f 13//13 12//12 15//15
f 16//16 17//17 18//18
f 17//17 16//16 19//19
f 20//20 21//21 22//22
f 21//21 20//20 23//23
f 24//24 25//25 26//26
f 25//25 24//24 27//27
f 28//28 27//27 24//24
f 27//27 28//28 29//29
f 30//30 10//10 31//31
f 10//10 30//30 8//8
f 14//14 32//32 33//33
f 32//32 14//14 13//13
f 34//34 35//35 36//36
f 35//35 34//34 37//37
f 38//38 39//39 40//40
f 39//39 38//38 41//41
f 42//42 43//43 44//44
f 43//43 42//42 45//45
f 46//46 47//47 48//48
f 47//47 46//46 49//49
f 23//23 50//50 21//21
f 50//50 23//23 51//51
f 52//52 31//31 53//53
f 31//31 52//52 30//30
f 54//54 55//55 56//56
f 55//55 54//54 57//57
f 58//58 59//59 60//60
f 59//59 58//58 61//61
f 62//62 63//63 64//64
f 63//63 62//62 65//65
f 66//66 67//67 68//68
f 67//67 66//66 69//69
f 70//70 19//19 16//16
f 19//19 70//70 71//71
f 65//65 72//72 63//63
f 72//72 65//65 73//73
f 74//74 75//75 76//76
f 75//75 74//74 77//77
f 56//56 78//78 79//79
f 78//78 56//56 55//55
f 53//53 80//80 52//52
f 81//81 82//82 83//83
f 82//82 81//81 84//84
f 85//85 40//40 86//86
f 40//40 85//85 38//38
f 87//87 88//88 89//89
f 90//90 57//57 54//54
f 57//57 90//90 91//91
f 92//92 15//15 12//12
f 15//15 92//92 93//93
f 26//26 94//94 95//95
f 94//94 26//26 25//25
f 96//96 97//97 98//98
f 97//97 96//96 99//99
f 100//100 101//101 102//102
f 101//101 100//100 103//103
f 104//104 64//64 105//105
f 64//64 104//104 62//62
f 60//60 103//103 100//100
f 103//103 60//60 59//59
f 106//106 84//84 81//81
f 84//84 106//106 107//107
f 7//7 108//108 109//109
f 108//108 7//7 6//6
f 48//48 99//99 96//96
f 99//99 48//48 47//47
f 110//110 61//61 58//58
f 61//61 110//110 111//111
f 79//79 93//93 92//92
f 93//93 79//79 78//78
f 112//112 113//113 114//114
f 113//113 112//112 115//115
f 44//44 116//116 117//117
f 116//116 44//44 43//43
f 109//109 118//118 119//119
f 118//118 109//109 108//108
f 83//83 69//69 66//66
f 69//69 83//83 82//82
f 11//11 22//22 9//9
f 22//22 11//11 20//20
f 119//119 115//115 112//112
f 115//115 119//119 118//118
f 120//120 71//71 70//70
f 71//71 120//120 121//121
f 73//73 94//94 72//72
f 94//94 73//73 95//95
f 122//122 45//45 42//42
f 45//45 122//122 123//123
f 102//102 101//101 5//5
f 41//41 105//105 39//39
f 105//105 41//41 104//104
f 124//124 87//87 125//125
f 126//126 91//91 90//90
f 91//91 126//126 127//127
f 128//128 129//129 130//130
f 129//129 128//128 131//131
f 132//132 77//77 74//74
f 77//77 132//132 133//133
f 117//117 37//37 34//34
f 37//37 117//117 116//116
f 130//130 129//129 80//80
f 133//133 121//121 120//120
f 121//121 133//133 132//132
f 35//35 134//134 36//36
f 114//114 127//127 126//126
f 127//127 114//114 113//113
f 88//88 86//86 89//89
f 86//86 88//88 85//85
f 76//76 123//123 122//122
f 123//123 76//76 75//75
f 98//98 111//111 110//110
f 111//111 98//98 97//97
f 106//106 134//134 107//107
f 18//18 135//135 136//136
f 135//135 18//18 17//17
f 136//136 137//137 138//138
f 137//137 136//136 135//135
f 138//138 131//131 128//128
f 131//131 138//138 137//137
f 139//139 46//46 140//140
f 46//46 139//139 49//49
f 51//51 140//140 50//50
f 140//140 51//51 139//139
f 33//33 124//124 125//125
f 124//124 33//33 32//32
f 68//68 29//29 28//28
f 29//29 68//68 67//67
f 141//141 142//142 143//143
f 142//142 141//141 144//144
f 135//135 8//8 137//137
f 8//8 135//135 11//11
f 145//145 146//146 147//147
f 18//18 21//21 16//16
f 21//21 18//18 22//22
f 19//19 20//20 17//17
f 20//20 19//19 23//23
f 148//148 149//149 150//150
f 149//149 148//148 151//151
f 150//150 152//152 153//153
f 152//152 150//150 149//149
f 137//137 30//30 131//131
f 30//30 137//137 8//8
f 128//128 10//10 138//138
f 10//10 128//128 31//31
f 154//154 155//155 156//156
f 155//155 154//154 157//157
f 15//15 38//38 13//13
f 38//38 15//15 41//41
f 13//13 85//85 32//32
f 85//85 13//13 38//38
f 14//14 39//39 12//12
f 39//39 14//14 40//40
f 49//49 158//158 159//159
f 158//158 49//49 132//132
f 160//160 161//161 162//162
f 71//71 23//23 19//19
f 23//23 71//71 51//51
f 32//32 88//88 124//124
f 88//88 32//32 85//85
f 163//163 164//164 165//165
f 164//164 163//163 166//166
f 136//136 22//22 18//18
f 22//22 136//136 9//9
f 131//131 52//52 129//129
f 52//52 131//131 30//30
f 167//167 168//168 169//169
f 168//168 167//167 170//170
f 79//79 63//63 56//56
f 63//63 79//79 64//64
f 171//171 172//172 173//173
f 172//172 171//171 174//174
f 175//175 176//176 177//177
f 176//176 175//175 178//178
f 56//56 72//72 54//54
f 72//72 56//56 63//63
f 157//157 179//179 155//155
f 179//179 157//157 180//180
f 57//57 65//65 55//55
f 65//65 57//57 73//73
f 55//55 62//62 78//78
f 62//62 55//55 65//65
f 181//181 182//182 183//183
f 182//182 181//181 184//184
f 80//80 129//129 52//52
f 185//185 186//186 187//187
f 186//186 185//185 188//188
f 33//33 40//40 14//14
f 40//40 33//33 86//86
f 146//146 143//143 147//147
f 143//143 146//146 141//141
f 87//87 89//89 125//125
f 91//91 73//73 57//57
f 73//73 91//91 95//95
f 189//189 190//190 191//191
f 190//190 189//189 192//192
f 93//93 41//41 15//15
f 41//41 93//93 104//104
f 90//90 151//151 148//148
f 151//151 90//90 94//94
f 180//180 46//46 179//179
f 46//46 180//180 133//133
f 193//193 192//192 189//189
f 192//192 193//193 194//194
f 184//184 156//156 182//182
f 156//156 184//184 154//154
f 195//195 196//196 197//197
f 196//196 195//195 198//198
f 92//92 64//64 79//79
f 64//64 92//92 105//105
f 169//169 198//198 195//195
f 198//198 169//169 168//168
f 187//187 161//161 160//160
f 161//161 187//187 186//186
f 144//144 199//199 142//142
f 199//199 144//144 200//200
f 200//200 201//201 199//199
f 201//201 200//200 202//202
f 159//159 194//194 193//193
f 194//194 159//159 158//158
f 191//191 170//170 167//167
f 170//170 191//191 190//190
f 78//78 104//104 93//93
f 104//104 78//78 62//62
f 203//203 183//183 204//204
f 183//183 203//203 181//181
f 173//173 188//188 185//185
f 188//188 173//173 172//172
f 130//130 31//31 128//128
f 31//31 130//130 53//53
f 17//17 11//11 135//135
f 11//11 17//17 20//20
f 202//202 177//177 201//201
f 177//177 202//202 175//175
f 54//54 94//94 90//90
f 94//94 54//54 72//72
f 197//197 196//196 145//145
f 178//178 205//205 176//176
f 205//205 178//178 206//206
f 12//12 105//105 92//92
f 105//105 12//12 39//39
f 124//124 88//88 87//87
f 206//206 91//91 205//205
f 91//91 206//206 95//95
f 166//166 204//204 164//164
f 204//204 166//166 203//203
f 53//53 130//130 80//80
f 120//120 46//46 133//133
f 46//46 120//120 140//140
f 162//162 163//163 165//165
f 125//125 86//86 33//33
f 86//86 125//125 89//89
f 70//70 140//140 120//120
f 140//140 70//70 50//50
f 138//138 9//9 136//136
f 9//9 138//138 10//10
f 132//132 139//139 121//121
f 139//139 132//132 49//49
f 121//121 51//51 71//71
f 51//51 121//121 139//139
f 16//16 50//50 70//70
f 50//50 16//16 21//21
f 153//153 174//174 171//171
f 174//174 153//153 152//152
f 168//168 141//141 198//198
f 141//141 168//168 144//144
f 7//7 100//100 3//3
f 100//100 7//7 60//60
f 172//172 203//203 188//188
f 203//203 172//172 181//181
f 3//3 102//102 1//1
f 102//102 3//3 100//100
f 126//126 96//96 114//114
f 96//96 126//126 48//48
f 160//160 164//164 187//187
f 164//164 160//160 165//165
f 189//189 176//176 193//193
f 176//176 189//189 177//177
f 5//5 101//101 4//4
f 149//149 154//154 152//152
f 154//154 149//149 157//157
f 43//43 67//67 69//69
f 67//67 43//43 45//45
f 95//95 74//74 26//26
f 74//74 95//95 132//132
f 150//150 179//179 148//148
f 179//179 150//150 155//155
f 195//195 142//142 169//169
f 142//142 195//195 143//143
f 169//169 199//199 167//167
f 199//199 169//169 142//142
f 174//174 181//181 172//172
f 181//181 174//174 184//184
f 197//197 145//145 147//147
f 153//153 155//155 150//150
f 155//155 153//153 156//156
f 114//114 98//98 112//112
f 98//98 114//114 96//96
f 197//197 143//143 195//195
f 143//143 197//197 147//147
f 171//171 156//156 153//153
f 156//156 171//171 182//182
f 36//36 134//134 106//106
f 1//1 102//102 5//5
f 35//35 84//84 107//107
f 84//84 35//35 37//37
f 59//59 108//108 6//6
f 108//108 59//59 61//61
f 132//132 206//206 158//158
f 206//206 132//132 95//95
f 158//158 178//178 194//194
f 178//178 158//158 206//206
f 145//145 196//196 146//146
f 109//109 60//60 7//7
f 60//60 109//109 58//58
f 111//111 115//115 118//118
f 115//115 111//111 97//97
f 119//119 58//58 109//109
f 58//58 119//119 110//110
f 83//83 34//34 81//81
f 34//34 83//83 117//117
f 94//94 180//180 151//151
f 180//180 94//94 133//133
f 167//167 201//201 191//191
f 201//201 167//167 199//199
f 66//66 117//117 83//83
f 117//117 66//66 44//44
f 185//185 183//183 173//173
f 183//183 185//185 204//204
f 37//37 82//82 84//84
f 82//82 37//37 116//116
f 148//148 46//46 90//90
f 46//46 148//148 179//179
f 103//103 6//6 2//2
f 6//6 103//103 59//59
f 90//90 48//48 126//126
f 48//48 90//90 46//46
f 107//107 134//134 35//35
f 81//81 36//36 106//106
f 36//36 81//81 34//34
f 188//188 166//166 186//186
f 166//166 188//188 203//203
f 68//68 44//44 66//66
f 44//44 68//68 42//42
f 173//173 182//182 171//171
f 182//182 173//173 183//183
f 101//101 2//2 4//4
f 2//2 101//101 103//103
f 77//77 94//94 25//25
f 94//94 77//77 133//133
f 198//198 146//146 196//196
f 146//146 198//198 141//141
f 99//99 127//127 113//113
f 127//127 99//99 47//47
f 112//112 110//110 119//119
f 110//110 112//112 98//98
f 161//161 163//163 162//162
f 152//152 184//184 174//174
f 184//184 152//152 154//154
f 160//160 162//162 165//165
f 151//151 157//157 149//149
f 157//157 151//151 180//180
f 190//190 200//200 170//170
f 200//200 190//190 202//202
f 187//187 204//204 185//185
f 204//204 187//187 164//164
f 193//193 205//205 159//159
f 205//205 193//193 176//176
f 26//26 76//76 24//24
f 76//76 26//26 74//74
f 186//186 163//163 161//161
f 163//163 186//186 166//166
f 97//97 113//113 115//115
f 113//113 97//97 99//99
f 28//28 42//42 68//68
f 42//42 28//28 122//122
f 45//45 29//29 67//67
f 29//29 45//45 123//123
f 61//61 118//118 108//108
f 118//118 61//61 111//111
f 191//191 177//177 189//189
f 177//177 191//191 201//201
f 194//194 175//175 192//192
f 175//175 194//194 178//178
f 159//159 91//91 49//49
f 91//91 159//159 205//205
f 24//24 122//122 28//28
f 122//122 24//24 76//76
f 116//116 69//69 82//82
f 69//69 116//116 43//43
f 170//170 144//144 168//168
f 144//144 170//170 200//200
f 75//75 25//25 27//27
f 25//25 75//75 77//77
f 47//47 91//91 127//127
f 91//91 47//47 49//49
f 123//123 27//27 29//29
f 27//27 123//123 75//75
f 192//192 202//202 190//190
f 202//202 192//192 175//175
# 408 faces, 0 coords texture

# End of File
